  0
SECTION
  2
HEADER
  9
$ACADVER
  1
AC1009
  9
$FILLMODE
 70
1
  9
$EXTMIN
 10
-0.0762
 20
-0.0762
 30
0.0000
  9
$EXTMAX
 10
186.1660
 20
111.7680
 30
0.0000
  0
ENDSEC
  0
SECTION
  2
TABLES
  0
TABLE
  2
LTYPE
 70
1
  0
LTYPE
  2
CONTINUOUS
 70
64
  3
Solid line
 72
65
 73
0
 40
0
  0
ENDTAB
  0
TABLE
  2
LAYER
 70
255
  0
LAYER
  2
18
 70
64
 62
110
  6
CONTINUOUS
  0
LAYER
  2
20
 70
64
 62
31
  6
CONTINUOUS
  0
ENDTAB
  0
ENDSEC
  0
SECTION
  2
BLOCKS
  0
BLOCK
  8
0
  2
RECT
 70
64
 10
0.0000
 20
0.0000
 30
0.0000
  3
RECT
  0
SOLID
  8
0
 10
-0.5000
 20
-0.5000
 30
0.0000
 11
0.5000
 21
-0.5000
 31
0.0000
 12
-0.5000
 22
0.5000
 32
0.0000
 13
0.5000
 23
0.5000
 33
0.0000
  0
ENDBLK
  8
0
  0
BLOCK
  8
0
  2
PIE
 70
64
 10
0.0000
 20
0.0000
 30
0.0000
  3
PIE
  0
POLYLINE
  8
0
 66
1
 10
0.0000
 20
0.0000
 30
0.0000
 40
0.5000
 41
0.5000
 70
0
  0
VERTEX
  8
0
 10
0.0000
 20
-0.2500
 30
0.0000
 42
1.0000
  0
VERTEX
  8
0
 10
0.0000
 20
0.2500
 30
0.0000
 42
1.0000
  0
VERTEX
  8
0
 10
0.0000
 20
-0.2500
 30
0.0000
  0
SEQEND
  8
0
  0
ENDBLK
  8
0
  0
BLOCK
  8
0
  2
OCTAGONP
 70
64
 10
0.0000
 20
0.0000
 30
0.0000
  3
OCTAGONP
  0
POLYLINE
  8
0
 66
1
 10
0.0000
 20
0.0000
 30
0.0000
 40
0.5000
 41
0.5000
 70
0
  0
VERTEX
  8
0
 10
-0.2500
 20
-0.1036
 30
0.0000
  0
VERTEX
  8
0
 10
-0.2500
 20
0.1036
 30
0.0000
  0
VERTEX
  8
0
 10
-0.1036
 20
0.2500
 30
0.0000
  0
VERTEX
  8
0
 10
0.1036
 20
0.2500
 30
0.0000
  0
VERTEX
  8
0
 10
0.2500
 20
0.1036
 30
0.0000
  0
VERTEX
  8
0
 10
0.2500
 20
-0.1036
 30
0.0000
  0
VERTEX
  8
0
 10
0.1036
 20
-0.2500
 30
0.0000
  0
VERTEX
  8
0
 10
-0.1036
 20
-0.2500
 30
0.0000
  0
VERTEX
  8
0
 10
-0.2500
 20
-0.1036
 30
0.0000
  0
VERTEX
  8
0
 10
-0.2500
 20
0.1036
 30
0.0000
  0
SEQEND
  8
0
  0
ENDBLK
  8
0
  0
BLOCK
  8
0
  2
SQUAREP
 70
64
 10
0.0000
 20
0.0000
 30
0.0000
  3
SQUAREP
  0
SOLID
  8
0
 10
-0.5000
 20
-0.5000
 30
0.0000
 11
0.5000
 21
-0.5000
 31
0.0000
 12
-0.5000
 22
0.5000
 32
0.0000
 13
0.5000
 23
0.5000
 33
0.0000
  0
ENDBLK
  8
0
  0
BLOCK
  8
0
  2
ROUNDP
 70
64
 10
0.0000
 20
0.0000
 30
0.0000
  3
ROUNDP
  0
POLYLINE
  8
0
 66
1
 10
0.0000
 20
0.0000
 30
0.0000
 40
0.5000
 41
0.5000
 70
0
  0
VERTEX
  8
0
 10
0.0000
 20
-0.2500
 30
0.0000
 42
1.0000
  0
VERTEX
  8
0
 10
0.0000
 20
0.2500
 30
0.0000
 42
1.0000
  0
VERTEX
  8
0
 10
0.0000
 20
-0.2500
 30
0.0000
  0
SEQEND
  8
0
  0
ENDBLK
  8
0
  0
BLOCK
  8
0
  2
ANNULUSP
 70
64
 10
0.0000
 20
0.0000
 30
0.0000
  3
ANNULUSP
  0
POLYLINE
  8
0
 66
1
 10
0.0000
 20
0.0000
 30
0.0000
 40
0.5000
 41
0.5000
 70
0
  0
VERTEX
  8
0
 10
0.0000
 20
-0.2500
 30
0.0000
 42
1.0000
  0
VERTEX
  8
0
 10
0.0000
 20
0.2500
 30
0.0000
 42
1.0000
  0
VERTEX
  8
0
 10
0.0000
 20
-0.2500
 30
0.0000
  0
SEQEND
  8
0
  0
ENDBLK
  8
0
  0
BLOCK
  8
0
  2
THERMALP
 70
64
 10
0.0000
 20
0.0000
 30
0.0000
  3
THERMALP
  0
POLYLINE
  8
0
 66
1
 10
0.0000
 20
0.0000
 30
0.0000
 40
0.1000
 41
0.1000
 70
0
  0
VERTEX
  8
0
 10
-0.2379
 20
0.4500
 30
0.0000
  0
VERTEX
  8
0
 10
0.2379
 20
0.4500
 30
0.0000
  0
SEQEND
  8
0
  0
POLYLINE
  8
0
 66
1
 10
0.0000
 20
0.0000
 30
0.0000
 40
0.0500
 41
0.0500
 70
0
  0
VERTEX
  8
0
 10
0.2379
 20
0.4250
 30
0.0000
 42
1.0000
  0
VERTEX
  8
0
 10
0.2379
 20
0.4750
 30
0.0000
  0
SEQEND
  8
0
  0
POLYLINE
  8
0
 66
1
 10
0.0000
 20
0.0000
 30
0.0000
 40
0.0500
 41
0.0500
 70
0
  0
VERTEX
  8
0
 10
-0.2379
 20
0.4750
 30
0.0000
 42
1.0000
  0
VERTEX
  8
0
 10
-0.2379
 20
0.4250
 30
0.0000
  0
SEQEND
  8
0
  0
POLYLINE
  8
0
 66
1
 10
0.0000
 20
0.0000
 30
0.0000
 40
0.1000
 41
0.1000
 70
0
  0
VERTEX
  8
0
 10
0.4500
 20
0.2379
 30
0.0000
  0
VERTEX
  8
0
 10
0.4500
 20
-0.2379
 30
0.0000
  0
SEQEND
  8
0
  0
POLYLINE
  8
0
 66
1
 10
0.0000
 20
0.0000
 30
0.0000
 40
0.0500
 41
0.0500
 70
0
  0
VERTEX
  8
0
 10
0.4250
 20
-0.2379
 30
0.0000
 42
1.0000
  0
VERTEX
  8
0
 10
0.4750
 20
-0.2379
 30
0.0000
  0
SEQEND
  8
0
  0
POLYLINE
  8
0
 66
1
 10
0.0000
 20
0.0000
 30
0.0000
 40
0.0500
 41
0.0500
 70
0
  0
VERTEX
  8
0
 10
0.4750
 20
0.2379
 30
0.0000
 42
1.0000
  0
VERTEX
  8
0
 10
0.4250
 20
0.2379
 30
0.0000
  0
SEQEND
  8
0
  0
POLYLINE
  8
0
 66
1
 10
0.0000
 20
0.0000
 30
0.0000
 40
0.1000
 41
0.1000
 70
0
  0
VERTEX
  8
0
 10
0.2379
 20
-0.4500
 30
0.0000
  0
VERTEX
  8
0
 10
-0.2379
 20
-0.4500
 30
0.0000
  0
SEQEND
  8
0
  0
POLYLINE
  8
0
 66
1
 10
0.0000
 20
0.0000
 30
0.0000
 40
0.0500
 41
0.0500
 70
0
  0
VERTEX
  8
0
 10
-0.2379
 20
-0.4250
 30
0.0000
 42
1.0000
  0
VERTEX
  8
0
 10
-0.2379
 20
-0.4750
 30
0.0000
  0
SEQEND
  8
0
  0
POLYLINE
  8
0
 66
1
 10
0.0000
 20
0.0000
 30
0.0000
 40
0.0500
 41
0.0500
 70
0
  0
VERTEX
  8
0
 10
0.2379
 20
-0.4750
 30
0.0000
 42
1.0000
  0
VERTEX
  8
0
 10
0.2379
 20
-0.4250
 30
0.0000
  0
SEQEND
  8
0
  0
POLYLINE
  8
0
 66
1
 10
0.0000
 20
0.0000
 30
0.0000
 40
0.1000
 41
0.1000
 70
0
  0
VERTEX
  8
0
 10
-0.4500
 20
-0.2379
 30
0.0000
  0
VERTEX
  8
0
 10
-0.4500
 20
0.2379
 30
0.0000
  0
SEQEND
  8
0
  0
POLYLINE
  8
0
 66
1
 10
0.0000
 20
0.0000
 30
0.0000
 40
0.0500
 41
0.0500
 70
0
  0
VERTEX
  8
0
 10
-0.4250
 20
0.2379
 30
0.0000
 42
1.0000
  0
VERTEX
  8
0
 10
-0.4750
 20
0.2379
 30
0.0000
  0
SEQEND
  8
0
  0
POLYLINE
  8
0
 66
1
 10
0.0000
 20
0.0000
 30
0.0000
 40
0.0500
 41
0.0500
 70
0
  0
VERTEX
  8
0
 10
-0.4750
 20
-0.2379
 30
0.0000
 42
1.0000
  0
VERTEX
  8
0
 10
-0.4250
 20
-0.2379
 30
0.0000
  0
SEQEND
  8
0
  0
ENDBLK
  8
0
  0
BLOCK
  8
0
  2
OCTAGONV
 70
64
 10
0.0000
 20
0.0000
 30
0.0000
  3
OCTAGONV
  0
POLYLINE
  8
0
 66
1
 10
0.0000
 20
0.0000
 30
0.0000
 40
0.5000
 41
0.5000
 70
0
  0
VERTEX
  8
0
 10
-0.2500
 20
-0.1036
 30
0.0000
  0
VERTEX
  8
0
 10
-0.2500
 20
0.1036
 30
0.0000
  0
VERTEX
  8
0
 10
-0.1036
 20
0.2500
 30
0.0000
  0
VERTEX
  8
0
 10
0.1036
 20
0.2500
 30
0.0000
  0
VERTEX
  8
0
 10
0.2500
 20
0.1036
 30
0.0000
  0
VERTEX
  8
0
 10
0.2500
 20
-0.1036
 30
0.0000
  0
VERTEX
  8
0
 10
0.1036
 20
-0.2500
 30
0.0000
  0
VERTEX
  8
0
 10
-0.1036
 20
-0.2500
 30
0.0000
  0
VERTEX
  8
0
 10
-0.2500
 20
-0.1036
 30
0.0000
  0
VERTEX
  8
0
 10
-0.2500
 20
0.1036
 30
0.0000
  0
SEQEND
  8
0
  0
ENDBLK
  8
0
  0
BLOCK
  8
0
  2
SQUAREV
 70
64
 10
0.0000
 20
0.0000
 30
0.0000
  3
SQUAREV
  0
SOLID
  8
0
 10
-0.5000
 20
-0.5000
 30
0.0000
 11
0.5000
 21
-0.5000
 31
0.0000
 12
-0.5000
 22
0.5000
 32
0.0000
 13
0.5000
 23
0.5000
 33
0.0000
  0
ENDBLK
  8
0
  0
BLOCK
  8
0
  2
ROUNDV
 70
64
 10
0.0000
 20
0.0000
 30
0.0000
  3
ROUNDV
  0
POLYLINE
  8
0
 66
1
 10
0.0000
 20
0.0000
 30
0.0000
 40
0.5000
 41
0.5000
 70
0
  0
VERTEX
  8
0
 10
0.0000
 20
-0.2500
 30
0.0000
 42
1.0000
  0
VERTEX
  8
0
 10
0.0000
 20
0.2500
 30
0.0000
 42
1.0000
  0
VERTEX
  8
0
 10
0.0000
 20
-0.2500
 30
0.0000
  0
SEQEND
  8
0
  0
ENDBLK
  8
0
  0
BLOCK
  8
0
  2
ANNULUSV
 70
64
 10
0.0000
 20
0.0000
 30
0.0000
  3
ANNULUSV
  0
POLYLINE
  8
0
 66
1
 10
0.0000
 20
0.0000
 30
0.0000
 40
0.5000
 41
0.5000
 70
0
  0
VERTEX
  8
0
 10
0.0000
 20
-0.2500
 30
0.0000
 42
1.0000
  0
VERTEX
  8
0
 10
0.0000
 20
0.2500
 30
0.0000
 42
1.0000
  0
VERTEX
  8
0
 10
0.0000
 20
-0.2500
 30
0.0000
  0
SEQEND
  8
0
  0
ENDBLK
  8
0
  0
BLOCK
  8
0
  2
THERMALV
 70
64
 10
0.0000
 20
0.0000
 30
0.0000
  3
THERMALV
  0
POLYLINE
  8
0
 66
1
 10
0.0000
 20
0.0000
 30
0.0000
 40
0.1000
 41
0.1000
 70
0
  0
VERTEX
  8
0
 10
-0.2379
 20
0.4500
 30
0.0000
  0
VERTEX
  8
0
 10
0.2379
 20
0.4500
 30
0.0000
  0
SEQEND
  8
0
  0
POLYLINE
  8
0
 66
1
 10
0.0000
 20
0.0000
 30
0.0000
 40
0.0500
 41
0.0500
 70
0
  0
VERTEX
  8
0
 10
0.2379
 20
0.4250
 30
0.0000
 42
1.0000
  0
VERTEX
  8
0
 10
0.2379
 20
0.4750
 30
0.0000
  0
SEQEND
  8
0
  0
POLYLINE
  8
0
 66
1
 10
0.0000
 20
0.0000
 30
0.0000
 40
0.0500
 41
0.0500
 70
0
  0
VERTEX
  8
0
 10
-0.2379
 20
0.4750
 30
0.0000
 42
1.0000
  0
VERTEX
  8
0
 10
-0.2379
 20
0.4250
 30
0.0000
  0
SEQEND
  8
0
  0
POLYLINE
  8
0
 66
1
 10
0.0000
 20
0.0000
 30
0.0000
 40
0.1000
 41
0.1000
 70
0
  0
VERTEX
  8
0
 10
0.4500
 20
0.2379
 30
0.0000
  0
VERTEX
  8
0
 10
0.4500
 20
-0.2379
 30
0.0000
  0
SEQEND
  8
0
  0
POLYLINE
  8
0
 66
1
 10
0.0000
 20
0.0000
 30
0.0000
 40
0.0500
 41
0.0500
 70
0
  0
VERTEX
  8
0
 10
0.4250
 20
-0.2379
 30
0.0000
 42
1.0000
  0
VERTEX
  8
0
 10
0.4750
 20
-0.2379
 30
0.0000
  0
SEQEND
  8
0
  0
POLYLINE
  8
0
 66
1
 10
0.0000
 20
0.0000
 30
0.0000
 40
0.0500
 41
0.0500
 70
0
  0
VERTEX
  8
0
 10
0.4750
 20
0.2379
 30
0.0000
 42
1.0000
  0
VERTEX
  8
0
 10
0.4250
 20
0.2379
 30
0.0000
  0
SEQEND
  8
0
  0
POLYLINE
  8
0
 66
1
 10
0.0000
 20
0.0000
 30
0.0000
 40
0.1000
 41
0.1000
 70
0
  0
VERTEX
  8
0
 10
0.2379
 20
-0.4500
 30
0.0000
  0
VERTEX
  8
0
 10
-0.2379
 20
-0.4500
 30
0.0000
  0
SEQEND
  8
0
  0
POLYLINE
  8
0
 66
1
 10
0.0000
 20
0.0000
 30
0.0000
 40
0.0500
 41
0.0500
 70
0
  0
VERTEX
  8
0
 10
-0.2379
 20
-0.4250
 30
0.0000
 42
1.0000
  0
VERTEX
  8
0
 10
-0.2379
 20
-0.4750
 30
0.0000
  0
SEQEND
  8
0
  0
POLYLINE
  8
0
 66
1
 10
0.0000
 20
0.0000
 30
0.0000
 40
0.0500
 41
0.0500
 70
0
  0
VERTEX
  8
0
 10
0.2379
 20
-0.4750
 30
0.0000
 42
1.0000
  0
VERTEX
  8
0
 10
0.2379
 20
-0.4250
 30
0.0000
  0
SEQEND
  8
0
  0
POLYLINE
  8
0
 66
1
 10
0.0000
 20
0.0000
 30
0.0000
 40
0.1000
 41
0.1000
 70
0
  0
VERTEX
  8
0
 10
-0.4500
 20
-0.2379
 30
0.0000
  0
VERTEX
  8
0
 10
-0.4500
 20
0.2379
 30
0.0000
  0
SEQEND
  8
0
  0
POLYLINE
  8
0
 66
1
 10
0.0000
 20
0.0000
 30
0.0000
 40
0.0500
 41
0.0500
 70
0
  0
VERTEX
  8
0
 10
-0.4250
 20
0.2379
 30
0.0000
 42
1.0000
  0
VERTEX
  8
0
 10
-0.4750
 20
0.2379
 30
0.0000
  0
SEQEND
  8
0
  0
POLYLINE
  8
0
 66
1
 10
0.0000
 20
0.0000
 30
0.0000
 40
0.0500
 41
0.0500
 70
0
  0
VERTEX
  8
0
 10
-0.4750
 20
-0.2379
 30
0.0000
 42
1.0000
  0
VERTEX
  8
0
 10
-0.4250
 20
-0.2379
 30
0.0000
  0
SEQEND
  8
0
  0
ENDBLK
  8
0
  0
BLOCK
  8
0
  2
LONGP100
 70
64
 10
0.0000
 20
0.0000
 30
0.0000
  3
LONGP100
  0
POLYLINE
  8
0
 66
1
 10
0.0000
 20
0.0000
 30
0.0000
 40
1.0000
 41
1.0000
 70
0
  0
VERTEX
  8
0
 10
-0.5000
 20
0.0000
 30
0.0000
  0
VERTEX
  8
0
 10
0.5000
 20
0.0000
 30
0.0000
  0
SEQEND
  8
0
  0
POLYLINE
  8
0
 66
1
 10
0.0000
 20
0.0000
 30
0.0000
 40
0.5000
 41
0.5000
 70
0
  0
VERTEX
  8
0
 10
0.5000
 20
-0.2500
 30
0.0000
 42
1.0000
  0
VERTEX
  8
0
 10
0.5000
 20
0.2500
 30
0.0000
  0
SEQEND
  8
0
  0
POLYLINE
  8
0
 66
1
 10
0.0000
 20
0.0000
 30
0.0000
 40
0.5000
 41
0.5000
 70
0
  0
VERTEX
  8
0
 10
-0.5000
 20
0.2500
 30
0.0000
 42
1.0000
  0
VERTEX
  8
0
 10
-0.5000
 20
-0.2500
 30
0.0000
  0
SEQEND
  8
0
  0
ENDBLK
  8
0
  0
ENDSEC
  0
SECTION
  2
ENTITIES
  0
POLYLINE
  8
20
 66
1
 10
0.0000
 20
0.0000
 30
0.0000
 40
0.1524
 41
0.1524
 70
0
  0
VERTEX
  8
20
 10
0.0000
 20
13.9700
 30
0.0000
  0
VERTEX
  8
20
 10
0.0000
 20
95.2500
 30
0.0000
  0
SEQEND
  8
0
  0
POLYLINE
  8
20
 66
1
 10
0.0000
 20
0.0000
 30
0.0000
 40
0.0762
 41
0.0762
 70
0
  0
VERTEX
  8
20
 10
0.0381
 20
95.2500
 30
0.0000
 42
1.0000
  0
VERTEX
  8
20
 10
-0.0381
 20
95.2500
 30
0.0000
  0
SEQEND
  8
0
  0
POLYLINE
  8
20
 66
1
 10
0.0000
 20
0.0000
 30
0.0000
 40
0.0762
 41
0.0762
 70
0
  0
VERTEX
  8
20
 10
-0.0381
 20
13.9700
 30
0.0000
 42
1.0000
  0
VERTEX
  8
20
 10
0.0381
 20
13.9700
 30
0.0000
  0
SEQEND
  8
0
  0
POLYLINE
  8
20
 66
1
 10
0.0000
 20
0.0000
 30
0.0000
 40
0.1524
 41
0.1524
 70
0
  0
VERTEX
  8
20
 10
13.9700
 20
109.2200
 30
0.0000
  0
VERTEX
  8
20
 10
173.9900
 20
109.2200
 30
0.0000
  0
SEQEND
  8
0
  0
POLYLINE
  8
20
 66
1
 10
0.0000
 20
0.0000
 30
0.0000
 40
0.0762
 41
0.0762
 70
0
  0
VERTEX
  8
20
 10
173.9900
 20
109.1819
 30
0.0000
 42
1.0000
  0
VERTEX
  8
20
 10
173.9900
 20
109.2581
 30
0.0000
  0
SEQEND
  8
0
  0
POLYLINE
  8
20
 66
1
 10
0.0000
 20
0.0000
 30
0.0000
 40
0.0762
 41
0.0762
 70
0
  0
VERTEX
  8
20
 10
13.9700
 20
109.2581
 30
0.0000
 42
1.0000
  0
VERTEX
  8
20
 10
13.9700
 20
109.1819
 30
0.0000
  0
SEQEND
  8
0
  0
POLYLINE
  8
20
 66
1
 10
0.0000
 20
0.0000
 30
0.0000
 40
0.1524
 41
0.1524
 70
0
  0
VERTEX
  8
20
 10
186.0550
 20
95.2500
 30
0.0000
  0
VERTEX
  8
20
 10
186.0550
 20
13.9700
 30
0.0000
  0
SEQEND
  8
0
  0
POLYLINE
  8
20
 66
1
 10
0.0000
 20
0.0000
 30
0.0000
 40
0.0762
 41
0.0762
 70
0
  0
VERTEX
  8
20
 10
186.0169
 20
13.9700
 30
0.0000
 42
1.0000
  0
VERTEX
  8
20
 10
186.0931
 20
13.9700
 30
0.0000
  0
SEQEND
  8
0
  0
POLYLINE
  8
20
 66
1
 10
0.0000
 20
0.0000
 30
0.0000
 40
0.0762
 41
0.0762
 70
0
  0
VERTEX
  8
20
 10
186.0931
 20
95.2500
 30
0.0000
 42
1.0000
  0
VERTEX
  8
20
 10
186.0169
 20
95.2500
 30
0.0000
  0
SEQEND
  8
0
  0
POLYLINE
  8
20
 66
1
 10
0.0000
 20
0.0000
 30
0.0000
 40
0.1524
 41
0.1524
 70
0
  0
VERTEX
  8
20
 10
173.9900
 20
0.0000
 30
0.0000
  0
VERTEX
  8
20
 10
13.9700
 20
0.0000
 30
0.0000
  0
SEQEND
  8
0
  0
POLYLINE
  8
20
 66
1
 10
0.0000
 20
0.0000
 30
0.0000
 40
0.0762
 41
0.0762
 70
0
  0
VERTEX
  8
20
 10
13.9700
 20
0.0381
 30
0.0000
 42
1.0000
  0
VERTEX
  8
20
 10
13.9700
 20
-0.0381
 30
0.0000
  0
SEQEND
  8
0
  0
POLYLINE
  8
20
 66
1
 10
0.0000
 20
0.0000
 30
0.0000
 40
0.0762
 41
0.0762
 70
0
  0
VERTEX
  8
20
 10
173.9900
 20
-0.0381
 30
0.0000
 42
1.0000
  0
VERTEX
  8
20
 10
173.9900
 20
0.0381
 30
0.0000
  0
SEQEND
  8
0
  0
POLYLINE
  8
20
 66
1
 10
0.0000
 20
0.0000
 30
0.0000
 40
0.1524
 41
0.1524
 70
0
  0
VERTEX
  8
20
 10
0.0000
 20
13.9700
 30
0.0000
 42
0.4142
  0
VERTEX
  8
20
 10
13.9700
 20
0.0000
 30
0.0000
  0
SEQEND
  8
0
  0
POLYLINE
  8
20
 66
1
 10
0.0000
 20
0.0000
 30
0.0000
 40
0.0762
 41
0.0762
 70
0
  0
VERTEX
  8
20
 10
0.0381
 20
13.9700
 30
0.0000
 42
1.0000
  0
VERTEX
  8
20
 10
-0.0381
 20
13.9700
 30
0.0000
  0
SEQEND
  8
0
  0
POLYLINE
  8
20
 66
1
 10
0.0000
 20
0.0000
 30
0.0000
 40
0.0762
 41
0.0762
 70
0
  0
VERTEX
  8
20
 10
13.9700
 20
-0.0381
 30
0.0000
 42
1.0000
  0
VERTEX
  8
20
 10
13.9700
 20
0.0381
 30
0.0000
  0
SEQEND
  8
0
  0
POLYLINE
  8
20
 66
1
 10
0.0000
 20
0.0000
 30
0.0000
 40
0.1524
 41
0.1524
 70
0
  0
VERTEX
  8
20
 10
173.9900
 20
0.0000
 30
0.0000
 42
0.4142
  0
VERTEX
  8
20
 10
186.0550
 20
13.9700
 30
0.0000
  0
SEQEND
  8
0
  0
POLYLINE
  8
20
 66
1
 10
0.0000
 20
0.0000
 30
0.0000
 40
0.0762
 41
0.0762
 70
0
  0
VERTEX
  8
20
 10
173.9872
 20
0.0380
 30
0.0000
 42
1.0000
  0
VERTEX
  8
20
 10
173.9928
 20
-0.0380
 30
0.0000
  0
SEQEND
  8
0
  0
POLYLINE
  8
20
 66
1
 10
0.0000
 20
0.0000
 30
0.0000
 40
0.0762
 41
0.0762
 70
0
  0
VERTEX
  8
20
 10
186.0930
 20
13.9728
 30
0.0000
 42
1.0000
  0
VERTEX
  8
20
 10
186.0170
 20
13.9672
 30
0.0000
  0
SEQEND
  8
0
  0
POLYLINE
  8
20
 66
1
 10
0.0000
 20
0.0000
 30
0.0000
 40
0.1524
 41
0.1524
 70
0
  0
VERTEX
  8
20
 10
13.9700
 20
109.2200
 30
0.0000
 42
0.4142
  0
VERTEX
  8
20
 10
0.0000
 20
95.2500
 30
0.0000
  0
SEQEND
  8
0
  0
POLYLINE
  8
20
 66
1
 10
0.0000
 20
0.0000
 30
0.0000
 40
0.0762
 41
0.0762
 70
0
  0
VERTEX
  8
20
 10
13.9700
 20
109.1819
 30
0.0000
 42
1.0000
  0
VERTEX
  8
20
 10
13.9700
 20
109.2581
 30
0.0000
  0
SEQEND
  8
0
  0
POLYLINE
  8
20
 66
1
 10
0.0000
 20
0.0000
 30
0.0000
 40
0.0762
 41
0.0762
 70
0
  0
VERTEX
  8
20
 10
-0.0381
 20
95.2500
 30
0.0000
 42
1.0000
  0
VERTEX
  8
20
 10
0.0381
 20
95.2500
 30
0.0000
  0
SEQEND
  8
0
  0
POLYLINE
  8
20
 66
1
 10
0.0000
 20
0.0000
 30
0.0000
 40
0.1524
 41
0.1524
 70
0
  0
VERTEX
  8
20
 10
186.0550
 20
95.2500
 30
0.0000
 42
0.4142
  0
VERTEX
  8
20
 10
173.9900
 20
109.2200
 30
0.0000
  0
SEQEND
  8
0
  0
POLYLINE
  8
20
 66
1
 10
0.0000
 20
0.0000
 30
0.0000
 40
0.0762
 41
0.0762
 70
0
  0
VERTEX
  8
20
 10
186.0170
 20
95.2528
 30
0.0000
 42
1.0000
  0
VERTEX
  8
20
 10
186.0930
 20
95.2472
 30
0.0000
  0
SEQEND
  8
0
  0
POLYLINE
  8
20
 66
1
 10
0.0000
 20
0.0000
 30
0.0000
 40
0.0762
 41
0.0762
 70
0
  0
VERTEX
  8
20
 10
173.9928
 20
109.2580
 30
0.0000
 42
1.0000
  0
VERTEX
  8
20
 10
173.9872
 20
109.1820
 30
0.0000
  0
SEQEND
  8
0
  0
CIRCLE
  8
20
 10
20.9042
 20
69.8500
 30
0.0000
 40
0.9017
  0
CIRCLE
  8
20
 10
29.8958
 20
69.8500
 30
0.0000
 40
0.9017
  0
CIRCLE
  8
20
 10
33.6042
 20
82.5500
 30
0.0000
 40
0.9017
  0
CIRCLE
  8
20
 10
42.5958
 20
82.5500
 30
0.0000
 40
0.9017
  0
POLYLINE
  8
20
 66
1
 10
0.0000
 20
0.0000
 30
0.0000
 40
0.1524
 41
0.1524
 70
0
  0
VERTEX
  8
20
 10
25.4000
 20
43.9240
 30
0.0000
 42
1.0000
  0
VERTEX
  8
20
 10
25.4000
 20
47.5160
 30
0.0000
 42
1.0000
  0
VERTEX
  8
20
 10
25.4000
 20
43.9240
 30
0.0000
  0
SEQEND
  8
0
  0
POLYLINE
  8
20
 66
1
 10
0.0000
 20
0.0000
 30
0.0000
 40
0.1524
 41
0.1524
 70
0
  0
VERTEX
  8
20
 10
159.3850
 20
43.6700
 30
0.0000
 42
1.0000
  0
VERTEX
  8
20
 10
159.3850
 20
47.2621
 30
0.0000
 42
1.0000
  0
VERTEX
  8
20
 10
159.3850
 20
43.6700
 30
0.0000
  0
SEQEND
  8
0
  0
CIRCLE
  8
20
 10
154.8892
 20
69.8500
 30
0.0000
 40
0.9017
  0
CIRCLE
  8
20
 10
163.8808
 20
69.8500
 30
0.0000
 40
0.9017
  0
CIRCLE
  8
20
 10
142.1892
 20
82.5500
 30
0.0000
 40
0.9017
  0
CIRCLE
  8
20
 10
151.1808
 20
82.5500
 30
0.0000
 40
0.9017
  0
CIRCLE
  8
20
 10
167.5892
 20
82.5500
 30
0.0000
 40
0.9017
  0
CIRCLE
  8
20
 10
176.5808
 20
82.5500
 30
0.0000
 40
0.9017
  0
CIRCLE
  8
20
 10
154.8892
 20
33.0200
 30
0.0000
 40
0.9017
  0
CIRCLE
  8
20
 10
163.8808
 20
33.0200
 30
0.0000
 40
0.9017
  0
CIRCLE
  8
20
 10
20.9042
 20
33.0200
 30
0.0000
 40
0.9017
  0
CIRCLE
  8
20
 10
29.8958
 20
33.0200
 30
0.0000
 40
0.9017
  0
CIRCLE
  8
20
 10
63.8250
 20
7.3100
 30
0.0000
 40
1.3750
  0
CIRCLE
  8
20
 10
63.8250
 20
30.3100
 30
0.0000
 40
1.3750
  0
CIRCLE
  8
20
 10
121.8250
 20
7.3100
 30
0.0000
 40
1.3750
  0
CIRCLE
  8
20
 10
121.8250
 20
30.3100
 30
0.0000
 40
1.3750
  0
CIRCLE
  8
20
 10
154.8892
 20
95.2500
 30
0.0000
 40
0.9017
  0
CIRCLE
  8
20
 10
163.8808
 20
95.2500
 30
0.0000
 40
0.9017
  0
CIRCLE
  8
20
 10
8.2042
 20
82.5500
 30
0.0000
 40
0.9017
  0
CIRCLE
  8
20
 10
17.1958
 20
82.5500
 30
0.0000
 40
0.9017
  0
CIRCLE
  8
20
 10
20.9042
 20
95.2500
 30
0.0000
 40
0.9017
  0
CIRCLE
  8
20
 10
29.8958
 20
95.2500
 30
0.0000
 40
0.9017
  0
INSERT
  8
18
  2
ROUNDV
 10
82.5500
 20
73.6600
 30
0.0000
 41
0.9540
 42
0.9540
 43
1.0000
 50
0.0000
  0
INSERT
  8
18
  2
ROUNDV
 10
82.5500
 20
73.6600
 30
0.0000
 41
0.9540
 42
0.9540
 43
1.0000
 50
0.0000
  0
INSERT
  8
18
  2
ROUNDV
 10
82.5500
 20
66.0400
 30
0.0000
 41
0.9540
 42
0.9540
 43
1.0000
 50
0.0000
  0
INSERT
  8
18
  2
ROUNDV
 10
82.5500
 20
66.0400
 30
0.0000
 41
0.9540
 42
0.9540
 43
1.0000
 50
0.0000
  0
INSERT
  8
18
  2
ROUNDV
 10
71.1200
 20
88.2650
 30
0.0000
 41
0.9540
 42
0.9540
 43
1.0000
 50
0.0000
  0
INSERT
  8
18
  2
ROUNDV
 10
71.1200
 20
88.2650
 30
0.0000
 41
0.9540
 42
0.9540
 43
1.0000
 50
0.0000
  0
INSERT
  8
18
  2
ROUNDV
 10
71.1200
 20
74.9300
 30
0.0000
 41
0.9540
 42
0.9540
 43
1.0000
 50
0.0000
  0
INSERT
  8
18
  2
ROUNDV
 10
71.1200
 20
74.9300
 30
0.0000
 41
0.9540
 42
0.9540
 43
1.0000
 50
0.0000
  0
INSERT
  8
18
  2
ROUNDV
 10
100.3300
 20
76.2000
 30
0.0000
 41
1.1540
 42
1.1540
 43
1.0000
 50
0.0000
  0
INSERT
  8
18
  2
ROUNDV
 10
100.3300
 20
76.2000
 30
0.0000
 41
1.1540
 42
1.1540
 43
1.0000
 50
0.0000
  0
INSERT
  8
18
  2
ROUNDV
 10
73.6600
 20
76.2000
 30
0.0000
 41
1.1540
 42
1.1540
 43
1.0000
 50
0.0000
  0
INSERT
  8
18
  2
ROUNDV
 10
73.6600
 20
76.2000
 30
0.0000
 41
1.1540
 42
1.1540
 43
1.0000
 50
0.0000
  0
INSERT
  8
18
  2
ROUNDV
 10
135.8900
 20
92.7100
 30
0.0000
 41
1.1540
 42
1.1540
 43
1.0000
 50
0.0000
  0
INSERT
  8
18
  2
ROUNDV
 10
135.8900
 20
92.7100
 30
0.0000
 41
1.1540
 42
1.1540
 43
1.0000
 50
0.0000
  0
INSERT
  8
18
  2
ROUNDV
 10
148.5900
 20
92.7100
 30
0.0000
 41
1.1540
 42
1.1540
 43
1.0000
 50
0.0000
  0
INSERT
  8
18
  2
ROUNDV
 10
148.5900
 20
92.7100
 30
0.0000
 41
1.1540
 42
1.1540
 43
1.0000
 50
0.0000
  0
INSERT
  8
18
  2
ROUNDV
 10
57.7850
 20
30.8610
 30
0.0000
 41
1.1540
 42
1.1540
 43
1.0000
 50
0.0000
  0
INSERT
  8
18
  2
ROUNDV
 10
57.7850
 20
30.8610
 30
0.0000
 41
1.1540
 42
1.1540
 43
1.0000
 50
0.0000
  0
INSERT
  8
18
  2
ROUNDV
 10
57.7850
 20
41.2750
 30
0.0000
 41
1.1540
 42
1.1540
 43
1.0000
 50
0.0000
  0
INSERT
  8
18
  2
ROUNDV
 10
57.7850
 20
41.2750
 30
0.0000
 41
1.1540
 42
1.1540
 43
1.0000
 50
0.0000
  0
INSERT
  8
18
  2
ROUNDV
 10
133.3500
 20
73.6600
 30
0.0000
 41
1.1540
 42
1.1540
 43
1.0000
 50
0.0000
  0
INSERT
  8
18
  2
ROUNDV
 10
133.3500
 20
73.6600
 30
0.0000
 41
1.1540
 42
1.1540
 43
1.0000
 50
0.0000
  0
INSERT
  8
18
  2
ROUNDV
 10
146.0500
 20
73.6600
 30
0.0000
 41
1.1540
 42
1.1540
 43
1.0000
 50
0.0000
  0
INSERT
  8
18
  2
ROUNDV
 10
146.0500
 20
73.6600
 30
0.0000
 41
1.1540
 42
1.1540
 43
1.0000
 50
0.0000
  0
INSERT
  8
18
  2
ROUNDV
 10
127.0000
 20
88.9000
 30
0.0000
 41
1.1540
 42
1.1540
 43
1.0000
 50
0.0000
  0
INSERT
  8
18
  2
ROUNDV
 10
127.0000
 20
88.9000
 30
0.0000
 41
1.1540
 42
1.1540
 43
1.0000
 50
0.0000
  0
INSERT
  8
18
  2
ROUNDV
 10
109.8550
 20
88.9000
 30
0.0000
 41
1.1540
 42
1.1540
 43
1.0000
 50
0.0000
  0
INSERT
  8
18
  2
ROUNDV
 10
109.8550
 20
88.9000
 30
0.0000
 41
1.1540
 42
1.1540
 43
1.0000
 50
0.0000
  0
INSERT
  8
18
  2
ROUNDV
 10
121.9200
 20
88.9000
 30
0.0000
 41
1.1540
 42
1.1540
 43
1.0000
 50
0.0000
  0
INSERT
  8
18
  2
ROUNDV
 10
121.9200
 20
88.9000
 30
0.0000
 41
1.1540
 42
1.1540
 43
1.0000
 50
0.0000
  0
INSERT
  8
18
  2
ROUNDV
 10
119.3800
 20
88.9000
 30
0.0000
 41
1.1540
 42
1.1540
 43
1.0000
 50
0.0000
  0
INSERT
  8
18
  2
ROUNDV
 10
119.3800
 20
88.9000
 30
0.0000
 41
1.1540
 42
1.1540
 43
1.0000
 50
0.0000
  0
INSERT
  8
18
  2
ROUNDV
 10
111.7600
 20
20.8280
 30
0.0000
 41
1.1540
 42
1.1540
 43
1.0000
 50
0.0000
  0
INSERT
  8
18
  2
ROUNDV
 10
111.7600
 20
20.8280
 30
0.0000
 41
1.1540
 42
1.1540
 43
1.0000
 50
0.0000
  0
INSERT
  8
18
  2
ROUNDV
 10
101.6000
 20
20.8280
 30
0.0000
 41
1.1540
 42
1.1540
 43
1.0000
 50
0.0000
  0
INSERT
  8
18
  2
ROUNDV
 10
101.6000
 20
20.8280
 30
0.0000
 41
1.1540
 42
1.1540
 43
1.0000
 50
0.0000
  0
INSERT
  8
18
  2
ROUNDV
 10
111.8870
 20
18.6690
 30
0.0000
 41
1.1540
 42
1.1540
 43
1.0000
 50
0.0000
  0
INSERT
  8
18
  2
ROUNDV
 10
111.8870
 20
18.6690
 30
0.0000
 41
1.1540
 42
1.1540
 43
1.0000
 50
0.0000
  0
INSERT
  8
18
  2
ROUNDV
 10
101.6000
 20
18.6690
 30
0.0000
 41
1.1540
 42
1.1540
 43
1.0000
 50
0.0000
  0
INSERT
  8
18
  2
ROUNDV
 10
101.6000
 20
18.6690
 30
0.0000
 41
1.1540
 42
1.1540
 43
1.0000
 50
0.0000
  0
INSERT
  8
18
  2
ROUNDV
 10
111.7600
 20
22.8600
 30
0.0000
 41
1.1540
 42
1.1540
 43
1.0000
 50
0.0000
  0
INSERT
  8
18
  2
ROUNDV
 10
111.7600
 20
22.8600
 30
0.0000
 41
1.1540
 42
1.1540
 43
1.0000
 50
0.0000
  0
INSERT
  8
18
  2
ROUNDV
 10
101.6000
 20
22.8600
 30
0.0000
 41
1.1540
 42
1.1540
 43
1.0000
 50
0.0000
  0
INSERT
  8
18
  2
ROUNDV
 10
101.6000
 20
22.8600
 30
0.0000
 41
1.1540
 42
1.1540
 43
1.0000
 50
0.0000
  0
INSERT
  8
18
  2
ROUNDV
 10
127.0000
 20
24.1300
 30
0.0000
 41
1.1540
 42
1.1540
 43
1.0000
 50
0.0000
  0
INSERT
  8
18
  2
ROUNDV
 10
127.0000
 20
24.1300
 30
0.0000
 41
1.1540
 42
1.1540
 43
1.0000
 50
0.0000
  0
INSERT
  8
18
  2
ROUNDV
 10
127.0000
 20
17.7800
 30
0.0000
 41
1.1540
 42
1.1540
 43
1.0000
 50
0.0000
  0
INSERT
  8
18
  2
ROUNDV
 10
127.0000
 20
17.7800
 30
0.0000
 41
1.1540
 42
1.1540
 43
1.0000
 50
0.0000
  0
INSERT
  8
18
  2
ROUNDV
 10
147.3200
 20
17.7800
 30
0.0000
 41
1.1540
 42
1.1540
 43
1.0000
 50
0.0000
  0
INSERT
  8
18
  2
ROUNDV
 10
147.3200
 20
17.7800
 30
0.0000
 41
1.1540
 42
1.1540
 43
1.0000
 50
0.0000
  0
INSERT
  8
18
  2
ROUNDV
 10
161.2900
 20
17.7800
 30
0.0000
 41
1.1540
 42
1.1540
 43
1.0000
 50
0.0000
  0
INSERT
  8
18
  2
ROUNDV
 10
161.2900
 20
17.7800
 30
0.0000
 41
1.1540
 42
1.1540
 43
1.0000
 50
0.0000
  0
INSERT
  8
18
  2
ROUNDV
 10
7.6200
 20
7.6200
 30
0.0000
 41
3.2540
 42
3.2540
 43
1.0000
 50
0.0000
  0
INSERT
  8
18
  2
ROUNDV
 10
7.6200
 20
7.6200
 30
0.0000
 41
3.2540
 42
3.2540
 43
1.0000
 50
0.0000
  0
INSERT
  8
18
  2
ROUNDV
 10
130.8100
 20
91.4400
 30
0.0000
 41
3.2540
 42
3.2540
 43
1.0000
 50
0.0000
  0
INSERT
  8
18
  2
ROUNDV
 10
130.8100
 20
91.4400
 30
0.0000
 41
3.2540
 42
3.2540
 43
1.0000
 50
0.0000
  0
INSERT
  8
18
  2
ROUNDV
 10
7.6200
 20
101.6000
 30
0.0000
 41
3.2540
 42
3.2540
 43
1.0000
 50
0.0000
  0
INSERT
  8
18
  2
ROUNDV
 10
7.6200
 20
101.6000
 30
0.0000
 41
3.2540
 42
3.2540
 43
1.0000
 50
0.0000
  0
INSERT
  8
18
  2
ROUNDV
 10
177.1650
 20
7.6200
 30
0.0000
 41
3.2540
 42
3.2540
 43
1.0000
 50
0.0000
  0
INSERT
  8
18
  2
ROUNDV
 10
177.1650
 20
7.6200
 30
0.0000
 41
3.2540
 42
3.2540
 43
1.0000
 50
0.0000
  0
INSERT
  8
18
  2
ROUNDV
 10
177.1650
 20
101.6000
 30
0.0000
 41
3.2540
 42
3.2540
 43
1.0000
 50
0.0000
  0
INSERT
  8
18
  2
ROUNDV
 10
177.1650
 20
101.6000
 30
0.0000
 41
3.2540
 42
3.2540
 43
1.0000
 50
0.0000
  0
INSERT
  8
18
  2
ROUNDV
 10
60.9600
 20
45.7200
 30
0.0000
 41
3.2540
 42
3.2540
 43
1.0000
 50
0.0000
  0
INSERT
  8
18
  2
ROUNDV
 10
60.9600
 20
45.7200
 30
0.0000
 41
3.2540
 42
3.2540
 43
1.0000
 50
0.0000
  0
INSERT
  8
18
  2
ROUNDV
 10
53.3400
 20
91.4400
 30
0.0000
 41
3.2540
 42
3.2540
 43
1.0000
 50
0.0000
  0
INSERT
  8
18
  2
ROUNDV
 10
53.3400
 20
91.4400
 30
0.0000
 41
3.2540
 42
3.2540
 43
1.0000
 50
0.0000
  0
INSERT
  8
18
  2
ROUNDV
 10
119.3800
 20
53.3400
 30
0.0000
 41
3.2540
 42
3.2540
 43
1.0000
 50
0.0000
  0
INSERT
  8
18
  2
ROUNDV
 10
119.3800
 20
53.3400
 30
0.0000
 41
3.2540
 42
3.2540
 43
1.0000
 50
0.0000
  0
ENDSEC
  0
EOF
